<?xml version="1.0" encoding="iso-8859-1"?>
<!-- Generator: Adobe Illustrator 19.0.0, SVG Export Plug-In . SVG Version: 6.00 Build 0)  -->
<svg version="1.1" id="Layer_1" xmlns="http://www.w3.org/2000/svg" xmlns:xlink="http://www.w3.org/1999/xlink" x="0px" y="0px"
	 viewBox="0 0 512 512" style="enable-background:new 0 0 512 512;" xml:space="preserve">
<g>
	<g>
		<path d="M511.274,190.436c-1.61-6.682-5.727-12.337-11.59-15.922L269.417,33.699c-8.28-5.065-18.567-5.065-26.848-0.001
			l-93.987,57.476V75.938h4.906c5.633,0,10.199-4.566,10.199-10.199V39.083c0-5.633-4.566-10.199-10.199-10.199h-91.52
			c-5.633,0-10.199,4.566-10.199,10.199v26.657c0,5.633,4.566,10.199,10.199,10.199h4.906v65.202L12.3,174.513
			c-12.104,7.403-15.929,23.272-8.527,35.375c3.585,5.864,9.239,9.98,15.921,11.59c2.017,0.487,4.054,0.726,6.077,0.726
			c4.679,0,9.283-1.286,13.377-3.789l0.082-0.05v254.552c0,5.633,4.566,10.199,10.199,10.199h413.126
			c5.632,0,10.199-4.566,10.199-10.199V218.365l0.083,0.051c4.046,2.474,8.681,3.782,13.405,3.782c0.002,0,0.003,0,0.005,0
			c9.04,0,17.251-4.602,21.964-12.308C511.797,204.025,512.884,197.117,511.274,190.436z M72.167,49.282h71.121v6.258h-4.906h-61.31
			h-4.906V49.282z M128.183,75.938v27.709l-40.911,25.019V75.938H128.183z M297.563,462.719h-83.142v-59.328h15.685
			c5.633,0,10.199-4.566,10.199-10.199s-4.566-10.199-10.199-10.199h-15.685V324.7h83.142V462.719z M452.356,462.719H317.961
			V314.501c0-5.633-4.567-10.199-10.199-10.199H204.222c-5.633,0-10.199,4.566-10.199,10.199v148.217H59.628V205.892L255.992,85.809
			l196.364,120.082V462.719z M490.809,199.246c-0.977,1.598-2.683,2.553-4.564,2.553c-0.001,0-0.001,0-0.002,0
			c-0.981,0-1.911-0.264-2.764-0.785L261.313,65.153c-1.633-0.999-3.477-1.498-5.321-1.498s-3.688,0.5-5.321,1.498L28.507,201.014
			c-1.215,0.744-2.645,0.97-4.032,0.634c-1.384-0.333-2.556-1.186-3.298-2.402c-1.534-2.508-0.741-5.796,1.767-7.33L253.211,51.101
			c1.716-1.049,3.846-1.049,5.563,0l230.269,140.816c1.215,0.742,2.067,1.914,2.401,3.298
			C491.778,196.599,491.552,198.03,490.809,199.246z"/>
	</g>
</g>
<g>
	<g>
		<path d="M255.992,127.248c-27.604,0-50.062,22.457-50.062,50.062c0,27.604,22.458,50.062,50.062,50.062
			s50.062-22.458,50.062-50.062C306.054,149.705,283.597,127.248,255.992,127.248z M245.793,205.167
			c-8.166-3-14.658-9.492-17.658-17.658h17.658V205.167z M245.793,167.11h-17.658c3-8.166,9.492-14.658,17.658-17.658V167.11z
			 M266.192,149.452c8.166,3,14.658,9.492,17.657,17.658h-17.657V149.452z M266.192,205.167v-17.658h17.657
			C280.85,195.674,274.357,202.167,266.192,205.167z"/>
	</g>
</g>
<g>
	<g>
		<path d="M166.947,267.027H87.221c-5.633,0-10.199,4.566-10.199,10.199v101.149c0,5.633,4.566,10.199,10.199,10.199h0.166h79.56
			c5.633,0,10.199-4.566,10.199-10.199v-0.651V277.225C177.146,271.593,172.58,267.027,166.947,267.027z M97.42,287.425h15.673
			L97.42,326.262V287.425z M102.502,368.176l24.633-61.038l24.901,61.038H102.502z M156.748,325.723l-15.624-38.298h15.624V325.723z
			"/>
	</g>
</g>
<g>
	<g>
		<path d="M424.764,267.027h-79.726c-5.632,0-10.199,4.566-10.199,10.199v101.149c0,5.633,4.567,10.199,10.199,10.199h0.166h79.56
			c5.632,0,10.199-4.566,10.199-10.199v-0.651V277.225C434.963,271.593,430.396,267.027,424.764,267.027z M355.236,287.425h15.673
			l-15.673,38.836V287.425z M360.318,368.176l24.632-61.038l24.901,61.038H360.318z M414.565,325.724l-15.624-38.298h15.624V325.724
			z"/>
	</g>
</g>
<g>
	<g>
		<path d="M433.149,210.516l-53.842-32.571c-4.82-2.916-11.091-1.372-14.006,3.447c-2.915,4.819-1.372,11.092,3.448,14.007
			l53.842,32.571c1.65,0.999,3.471,1.474,5.269,1.474c3.452,0,6.82-1.753,8.737-4.922
			C439.512,219.703,437.969,213.431,433.149,210.516z"/>
	</g>
</g>
<g>
	<g>
		<path d="M351.347,161.032l-2.068-1.251c-4.821-2.915-11.092-1.369-14.005,3.449c-2.915,4.821-1.37,11.092,3.449,14.007
			l2.068,1.251c1.65,0.999,3.471,1.473,5.268,1.473c3.452,0,6.821-1.753,8.737-4.923
			C357.711,170.217,356.167,163.947,351.347,161.032z"/>
	</g>
</g>
<g>
</g>
<g>
</g>
<g>
</g>
<g>
</g>
<g>
</g>
<g>
</g>
<g>
</g>
<g>
</g>
<g>
</g>
<g>
</g>
<g>
</g>
<g>
</g>
<g>
</g>
<g>
</g>
<g>
</g>
</svg>
