<?xml version="1.0" encoding="iso-8859-1"?>
<!-- Generator: Adobe Illustrator 19.0.0, SVG Export Plug-In . SVG Version: 6.00 Build 0)  -->
<svg version="1.1" id="Layer_1" xmlns="http://www.w3.org/2000/svg" xmlns:xlink="http://www.w3.org/1999/xlink" x="0px" y="0px"
	 viewBox="0 0 512 512" style="enable-background:new 0 0 512 512;" xml:space="preserve">
<g>
	<g>
		<path style="fill:#010101;" d="M511.414,490.213V181.923c0-8.715-5.447-16.34-14.162-19.609L305.525,92.687v-70.9
			C305.525,9.804,295.72,0,283.737,0S261.95,9.804,261.95,21.787v84.97v100.221H22.29c-11.983,0-21.787,9.804-21.787,21.787v261.447
			C0.503,502.196,10.308,512,22.29,512h89.328h83.881h88.238h206.979C502.699,512,512.503,502.196,511.414,490.213z M42.988,249.464
			H261.95v220.051h-44.664v-86.06c0-11.983-9.804-21.787-21.787-21.787h-83.881c-11.983,0-21.787,9.804-21.787,21.787v86.06H42.988
			V249.464z M132.316,469.515c0,0,0-64.272,0-64.272h41.396v64.272H132.316z M470.018,469.515H306.614V228.766
			c0-2.362-0.386-4.637-1.089-6.771c0-32.198,0-84.736,0-84.736l164.494,59.915V469.515z"/>
	</g>
</g>
<g>
</g>
<g>
</g>
<g>
</g>
<g>
</g>
<g>
</g>
<g>
</g>
<g>
</g>
<g>
</g>
<g>
</g>
<g>
</g>
<g>
</g>
<g>
</g>
<g>
</g>
<g>
</g>
<g>
</g>
</svg>
